<svg width="801" height="895" fill="none" xmlns="http://www.w3.org/2000/svg">
  <path d="M90 552v-2.5l7-3h3.5l3.5-4.5-3.5-3-7.5-5-13.5-7-17.5-3.5H46l-9.5 3.5h-34v-32l-2-51v-18.5l5-15 31 27 23 20L73 444l20-18.5 33-24.5 23.5 29 28 27.5L203 481l21-13.5 12.5 31.5 12.5 35c-.833 1-4.5 4-12.5 8-2 3-6 3-7.5 2-1.2-.8-6.5-3.667-9-5l-49 29.5-18 8.5h-15l-9.5 5-10.5 3c-7.833-7-23.8-21.4-25-23-1.5-2-3-2.5-3-8v-2z" fill="#C4C4C4"/>
  <path d="M38 534H3l7 99 107 101.5 7-4 21-18.5 21.5-26.5c5.5-5.167 17.1-15.8 19.5-17 2.4-1.2 14-9.833 19.5-14L219 647l9 7.5 30 26.5 32-36.5V641l-15-15.5c-2.167-2.5-6.5-8-6.5-10v-7l3.5-5.5 7-15-21-23.5-9.5-25.5c-3.333 1.5-10.5 4.5-12.5 4.5s-4.5 4.667-5.5 7l-11.5-7c-17.667 11-53.5 33.2-55.5 34-2 .8-10.5 4.333-14.5 6l-8-3.5h-4.5l-16 8-10.5-4.5-17-16-6.5-8-4.5-9c2.333-1.333 7.8-4.6 11-7 3.2-2.4 6.667-1 8 0l-3-4.5-5-2.5c-2.833.667-9 1.6-11 0s-5.833-6-7.5-8H47c-1.6.8-6.667 4-9 5.5zm2-216L7.5 407.5 59 453l15-15 14-11.5 23.5-19 13-13 24 29.5 27 26 27.5 25.5 14-9.5 82.5-49.5-9.5-19v-9l13.5-12.5-22-7.5-19.5-5-17.5 10H238l-12-13-2-5.5 2-4.5v-2l-6-3.5-20.5-8.5-41.5-3-28-7-18.5-8.5-21-30.5L65 253l-8 20-17 45z" fill="#C4C4C4"/>
  <path d="M90 183.5l-23 66 47 64 32.5-29L175 263l84-62-18.5-26 3.5-4 21.5-19.5v-8L251 122l-14-23 25.5-17-34-52L196 50l-34.5 17.5-25 14.5-9 6.5-6 10.5-7.5 20-12 32.5-12 32z" fill="#C4C4C4"/>
  <path d="M232 29l32-17 15.5-8 16-4H308l1.5 2-1.5 10c.667.667 1.6 2.2 0 3-1.157.579-3.518 3.983-4.736 4.497 1.486 1.85 3.731 4.173 4.736 3.503 1.2-.8 4.167-3.333 5.5-4.5h5V27c1-.167 3.3 0 4.5 2 1.5 2.5 6.5 4.5 8 4.5 1.2 0 6.5-4.333 9-6.5l2.5-12c1.333 2.667 4.2 8 5 8 .8 0 4.333-3 6-4.5l7-3.5 11.5 5.5c1.5 2 4.5 6.5 4.5 8.5s1.333 5.5 2 7l12.5 6.5 17 5.5 14 10.5v16l3 13L410 98l-4 4.5h2l-2 2.5h-3.5L391 121c-4.167.833-12.5 2.9-12.5 4.5s-1.333 9-2 12.5l5.5 7 20.5 3-29-1.5L363 158l-15.5 10.5-5 10 31 23-13 15.5 16 17.5L363 247l-2.5 7.5-31.5-17-28.5-6-11-14.5-22.5-20.5-5 3-16-21-2-2.5 8.5-9.5 14.5-13 2.5-7-2.5-4.5-14.5-25.5-11-18.5 16-8.5L267 83l-9.5-15L232 29z" fill="#C4C4C4"/>
  <path d="M443.5 98.5l-15-7.5-18.5 9.5v5.5l-10 6.5-5 9.5c-2.667 1.167-8 3.6-8 4 0 .4-4 1.833-6 2.5v7l3 5 11 3.5h19c3.2 0 1.333 2.667 0 4l-10.5 4-27.5-2-8.5 7-13 11.5-8 8.5 8 6.5 21.5 16-2 5-8 12.5 1.5 5.5L381 236l-13.5 11.5L362 259l2 9 23 19.5 23 18 16.5 15.5 23.5 12 35 3 3-15 8.5-12 26.5-44.5 21-2.5 8 6 5-13 11-19-18.5-13.5-5.5-8V211l13-17c-5.5-6.167-16.7-18.8-17.5-20-1-1.5-11.5-20.5-12-22-.4-1.2-12.5-16.167-18.5-23.5l-17-14-23-8.5-25.5-7.5z" fill="#C4C4C4"/>
  <path d="M547.5 209.5v5l7 8.5 18 12.5-14 24-4 12h-7L540 267h-14l-4.5 8.5-28 45-5 17.5 46 2.5L545 344h61c-1.5-12-4.5-36.4-4.5-38 0-1.6 10.333-11.667 15.5-16.5v-5l-2.5-9c-4-3.167-12.2-9.9-13-11.5-.8-1.6-7.333-8.667-10.5-12l7.5-7.5 7.5-7.5h20.5l12.5 7.5h20V237l7.5-4H680l-16-14h-31l-5-3.5 4-3.5 15-2.5-2-2.5-8.5-6.5h-38l23 20 5 5c-.833 1-3 3-5 3h-7c-4.5-3.667-14-11.2-16-12-2-.8-9.5-6.667-13-9.5l-12.5-3-14.5-7-11 12.5z" fill="#C4C4C4"/>
  <path d="M703 249.5l-9-8.5-18.5-1-9.5 1v6.5c-3 .667-9.4 2-11 2-1.6 0-12-1.333-17-2l-6-3.5c-3-1-9.3-3.2-10.5-4-1.2-.8-9.5.333-13.5 1l-12 12 5 5 16 16 3 10.5v7.5c-4 3.333-12.6 10.8-15 14-2.4 3.2 1 22.667 3 32v9.5l-20.5 3v24L591 442l3 71 4 13.5 30.5-13.5c.667 1.667 2 5.6 2 8 0 3 7 2 8.5 0 1.2-1.6 5.833-6 8-8-.167-2-.4-6.6 0-9 .4-2.4 2.833-3.333 4-3.5l7-6.5 11.5-2 6.5 2 3 13 8-10.5 3.5-11L712 480l2-7.5 3.5-8.5 12.5-13v-7c-1.333-8-4-24.5-4-26.5 0-2.5-4-4-4.5-5.5-.4-1.2-1.5-4.167-2-5.5L714 393l-4-27.5c-1.333-12.333-4.1-37.3-4.5-38.5-.5-1.5-2.5-8-2.5-9.5s-3-4-3.5-6-5.5-2-5.5-3.5v-6c0-2 6-3.167 9-3.5l16.5-4.5 6.5-5h-6.5c-3.6 0-6.5-1.667-7.5-2.5V281h12l2-7c-5-.167-15.6-.4-18 0-2.4.4-6.667-3.833-8.5-6l24.5-1.5-4.5-5-5.5-3.5c-10.167.167-30.5.4-30.5 0v-5H700l3-3.5zm-170 93h-28.5l-4 20v20l-5 11-3.5 3 3.5 10 5 17.5 4 42.5V510h9l22.5-6 32-5.5 19.5-5.5v-48.5L585 386v-25.5l-2-11.5h-33.5l-16.5-6.5z" fill="#C4C4C4"/>
  <path d="M469 337.5h-16.5l-11 4-15 12-7.5 9.5 3 7.5 6.5 16.5v41l5.5 2.5 4.5 27.5 10.5 50.5 11 51.5h9l34-6 4.5-6 2-8.5-2-7.5-4.5-6.5-3-21.5v-34l-2-25-2-17-6-19.5v-13l2.5-5 3.5-8 2-8.5v-16.5l2-16h-15l-16-4z" fill="#C4C4C4"/>
  <path d="M741 447c-1.6-.4-5.667 1.5-7.5 2.5l-2 8-13 13V481l-7.5 4-15.5 5-3 4-10 15-6.5 3.5-2-3.5-4-11.5h-5.5L650 506v8l-5 8c-3 2.167-9.4 6.5-11 6.5-1.6 0-4.667-2.667-6-4l-3.5-6-25 15.5-6.5-5.5c-1.5-4.333-4.5-13.6-4.5-16v-15l-29 6.5-52 11.5v9l5.5 9.5v13l-5.5 9-12 2-55.5 10-19 6-3 12-7 7 13 14 3.5 6.5L418 625l22 22.5 6 2.5 10.5 21.5 19-10L501 656l18.5 8H541l11.5 4.5c-.5-2.333-1.7-7-2.5-7s2.333-5 4-7.5h8l5 7.5-5 12.5c5.333 1 16.4 3.1 18 3.5 1.6.4 9.333-3.833 13-6l6.5-4.5 12.5-8.5 12.5-4.5 24-2H662l20.5-19.5 3.5-7.5 19.5-18h5.5l15-8.5c2.5-3.833 7.9-11.7 9.5-12.5 1.6-.8.667-6.667 0-9.5l-7-12V558h7l19.5-18 17.5-15.5L786 521l-7-3c-2.167-3.667-6.5-11.4-6.5-13v-6.5h6.5l4 2h3l6-2c1.667-.667 5-2.5 5-4.5s-1.667-2.167-2.5-2H792v-13c-2.5 3 0-3.3 0-4.5 0-1.5 5-2 6.5-4s2-2.5 2-4.5v-3l-2-2.5v-2c-.333-1-1.1-3.5-1.5-5.5-.4-2-3.5-3.167-5-3.5-2.333 1.167-7.4 3.5-9 3.5-2 0-8.5 4.5-10.5 4.5-1.6 0-10.333 2-14.5 3l-10.5-3v-8c-1.5-.667-4.9-2.1-6.5-2.5z" fill="#C4C4C4"/>
  <path d="M420 613.5h-91L296 644l-16.5 19-19.5 24-5.5-5-36-32-10.5 7-21.5 15-19 18-21 24.5-26.5 21 55 50.5 123 108.5 13-22 34.5-43 47.5-74 50.5-68.5 9-15-6.5-15-9-7-20.5-20.5-2.5-6.5 6-9.5z" fill="#C4C4C4"/>
  <path d="M273.5 436.5l-47 28.5 1.5 1 19.5 54 5 19 8 24.5 13 12.5 10 9c-1.333 6.333-4.5 19.3-6.5 20.5-2 1.2-5.167 5.833-6.5 8l3 8 23 18 9-9L324 609h93.5l-9.5-11-4-8.5h4l5-4.5 2.5-9 5.5-6 12.5-4.5 23-4.5-14-68-58.5 8.5-37.5 5.5h-11l-16-44.5-19.5-40-26.5 14z" fill="#C4C4C4"/>
  <path d="M297.5 387l-5 5.5 5 13 6 17.5 19.5 43.5 16.5 37 59-7 42-8.5-6.5-36-6-17.5-1.5-1v-41l-3-11-8-16.5c-6.5 5.167-19.9 15.7-21.5 16.5-1.6.8-16.667 6-24 8.5l-16 2.5-45.5-15-11 9.5z" fill="#C4C4C4"/>
  <path d="M162.5 276L117 316l10.5 5 25 7 42.5 6 25 6.5 8.5 7.5v11.5l14 10 16-10H269l70 25.5 19.5 3 28-8.5 26-18L428 346l17-12-20-10.5-19-17-37-30.5-10.5-8.5V258L335 244l-18.5-4-19-5.5L281 215l-14.5-15-55.5 40-48.5 36z" fill="#C4C4C4"/>
</svg>
